<?xml version="1.0" encoding="UTF-8"?>
<svg width="14px" height="21px" viewBox="0 0 14 21" version="1.1" xmlns="http://www.w3.org/2000/svg" xmlns:xlink="http://www.w3.org/1999/xlink">
    <!-- Generator: sketchtool 47.1 (45422) - http://www.bohemiancoding.com/sketch -->
    <title>462157D5-6AF9-44ED-ADD2-6DDEC0511B96</title>
    <desc>Created with sketchtool.</desc>
    <defs></defs>
    <g id="Page-1" stroke="none" stroke-width="1" fill="none" fill-rule="evenodd">
        <g id="Artboard" transform="translate(-504.000000, -9.000000)">
            <g id="Group-2" transform="translate(505.000000, 10.000000)">
                <path d="M12,1.92 C12,0.86 11.2628571,0 10.3542857,0 L1.64657143,0 C0.738,0 0,0.86 0,1.92 L0,17.08 C0,18.14 0.738,19 1.64657143,19 L10.3542857,19 C11.2628571,19 12,18.14 12,17.08 L12,1.92 Z" id="Stroke-371" stroke="#FFFFFF" stroke-width="2" stroke-linejoin="round"></path>
                <polygon id="Fill-372" fill="#FFFFFF" points="0 18 12 18 12 14 0 14"></polygon>
                <path d="M6.5,15 C7.328,15 8,15.672 8,16.5 C8,17.328 7.328,18 6.5,18 C5.673,18 5,17.328 5,16.5 C5,15.672 5.673,15 6.5,15 Z" id="Fill-373" fill="#707C91"></path>
            </g>
        </g>
    </g>
</svg>