<?xml version="1.0" encoding="UTF-8"?>
<svg width="23px" height="21px" viewBox="0 0 23 21" version="1.1" xmlns="http://www.w3.org/2000/svg" xmlns:xlink="http://www.w3.org/1999/xlink">
    <!-- Generator: sketchtool 47.1 (45422) - http://www.bohemiancoding.com/sketch -->
    <title>380B45BF-3934-4BD8-9895-07ACE48EFE43</title>
    <desc>Created with sketchtool.</desc>
    <defs></defs>
    <g id="Page-1" stroke="none" stroke-width="1" fill="none" fill-rule="evenodd">
        <g id="Artboard" transform="translate(-563.000000, -9.000000)">
            <g id="Group-30" transform="translate(563.000000, 10.000000)">
                <path d="M22,2 C22,0.922 21.078,0 20,0 L3,0 C1.922,0 1,0.922 1,2 L1,13 C1,14.078 1.922,15 3,15 L20,15 C21.078,15 22,14.078 22,13 L22,2 Z" id="Stroke-378" stroke="#FFFFFF" stroke-width="2" stroke-linejoin="round"></path>
                <path d="M23,18 C23,16.896 22.104,16 21,16 L2,16 C0.897,16 0,16.896 0,18 C0,19.104 0.897,20 2,20 L21,20 C22.104,20 23,19.104 23,18 Z" id="Fill-379" fill="#FFFFFF"></path>
            </g>
        </g>
    </g>
</svg>