<?xml version="1.0" encoding="UTF-8"?>
<svg width="31px" height="18px" viewBox="0 0 31 18" version="1.1" xmlns="http://www.w3.org/2000/svg" xmlns:xlink="http://www.w3.org/1999/xlink">
    <!-- Generator: sketchtool 47.1 (45422) - http://www.bohemiancoding.com/sketch -->
    <title>D5DF8770-EC0B-4BB4-9E29-3A1D53544880</title>
    <desc>Created with sketchtool.</desc>
    <defs></defs>
    <g id="Page-1" stroke="none" stroke-width="1" fill="none" fill-rule="evenodd">
        <g id="Artboard" transform="translate(-937.000000, -10.000000)">
            <g id="Group-18" transform="translate(937.000000, 10.000000)">
                <path d="M30.938,9 C30.938,4.309 27.129,0.5 22.438,0.5 L9.438,0.5 C4.746,0.5 0.938,4.309 0.938,9 C0.938,13.691 4.746,17.5 9.438,17.5 L22.438,17.5 C27.129,17.5 30.938,13.691 30.938,9 Z" id="Fill-369" fill="#61B2FE"></path>
                <path d="M21.938,2 C25.801,2 28.938,5.137 28.938,9 C28.938,12.863 25.801,16 21.938,16 C18.074,16 14.938,12.863 14.938,9 C14.938,5.137 18.074,2 21.938,2 Z" id="Fill-370" fill="#FFFFFF"></path>
            </g>
        </g>
    </g>
</svg>