<?xml version="1.0" encoding="UTF-8"?>
<svg width="17px" height="16px" viewBox="0 0 17 16" version="1.1" xmlns="http://www.w3.org/2000/svg" xmlns:xlink="http://www.w3.org/1999/xlink">
    <!-- Generator: sketchtool 47.1 (45422) - http://www.bohemiancoding.com/sketch -->
    <title>47F6B067-DCC8-44DB-ADFB-B9A1D1CF9194</title>
    <desc>Created with sketchtool.</desc>
    <defs></defs>
    <g id="Page-1" stroke="none" stroke-width="1" fill="none" fill-rule="evenodd">
        <g id="Artboard" transform="translate(-295.000000, -12.000000)" fill="#FFFFFF">
            <g id="Group-7" transform="translate(295.000000, 12.000000)">
                <path d="M13.072,15.169 C16.62,13.121 17.835,8.584 15.787,5.036 C13.739,1.488 9.202,0.273 5.654,2.321 L7.508,5.533 C9.282,4.509 11.551,5.117 12.575,6.891 C13.599,8.665 12.991,10.933 11.217,11.957 L13.072,15.169 Z" id="Fill-437"></path>
                <path d="M1.349,7.685 C1.053,7.649 0.792,7.476 0.643,7.218 C0.494,6.96 0.475,6.647 0.592,6.372 C1.224,4.887 2.326,2.301 3.06,0.577 C3.201,0.247 3.516,0.024 3.875,0.003 C4.233,-0.019 4.573,0.164 4.753,0.475 C5.803,2.294 7.487,5.21 8.537,7.03 C8.717,7.341 8.705,7.727 8.507,8.026 C8.309,8.326 7.959,8.488 7.602,8.445 C5.742,8.219 2.952,7.879 1.349,7.685 Z" id="Fill-440"></path>
            </g>
        </g>
    </g>
</svg>