<?xml version="1.0" encoding="UTF-8"?>
<svg width="27px" height="23px" viewBox="0 0 27 23" version="1.1" xmlns="http://www.w3.org/2000/svg" xmlns:xlink="http://www.w3.org/1999/xlink">
    <!-- Generator: sketchtool 47.1 (45422) - http://www.bohemiancoding.com/sketch -->
    <title>6B78BB02-DF73-4291-B179-FA6682FB1994</title>
    <desc>Created with sketchtool.</desc>
    <defs></defs>
    <g id="Page-1" stroke="none" stroke-width="1" fill="none" fill-rule="evenodd">
        <g id="Artboard" transform="translate(-598.000000, -7.000000)">
            <g id="Group-3" transform="translate(599.000000, 8.000000)">
                <path d="M24.9,2.332 C24.9,1.045 23.855,0 22.568,0 L3.232,0 C1.945,0 0.9,1.045 0.9,2.332 L0.9,14.668 C0.9,15.955 1.945,17 3.232,17 L22.568,17 C23.855,17 24.9,15.955 24.9,14.668 L24.9,2.332 Z" id="Stroke-380" stroke="#FFFFFF" stroke-width="2" stroke-linejoin="round"></path>
                <path d="M17.4,20 C17.4,18.896 16.5089678,18 15.4110889,18 L10.4388111,18 C9.34093218,18 8.4499,18.896 8.4499,20 C8.4499,21.104 9.34093218,22 10.4388111,22 L15.4110889,22 C16.5089678,22 17.4,21.104 17.4,20 Z" id="Fill-381" fill="#FFFFFF"></path>
            </g>
        </g>
    </g>
</svg>