<?xml version="1.0" encoding="UTF-8"?>
<svg width="30px" height="18px" viewBox="0 0 30 18" version="1.1" xmlns="http://www.w3.org/2000/svg" xmlns:xlink="http://www.w3.org/1999/xlink">
    <!-- Generator: sketchtool 47.1 (45422) - http://www.bohemiancoding.com/sketch -->
    <title>CEFECC4E-9D76-46F4-9588-8965A3033158</title>
    <desc>Created with sketchtool.</desc>
    <defs></defs>
    <g id="Page-1" stroke="none" stroke-width="1" fill="none" fill-rule="evenodd">
        <g id="Artboard" transform="translate(-1209.000000, -566.000000)">
            <g id="Group-29" transform="translate(1209.000000, 566.000000)">
                <path d="M30,9.426 C30,4.735 26.19,0.926 21.5,0.926 L8.5,0.926 C3.81,0.926 0,4.735 0,9.426 C0,14.117 3.81,17.926 8.5,17.926 L21.5,17.926 C26.19,17.926 30,14.117 30,9.426 Z" id="Fill-363" fill="#465669"></path>
                <path d="M9,2.426 C12.86,2.426 16,5.562 16,9.426 C16,13.289 12.86,16.426 9,16.426 C5.14,16.426 2,13.289 2,9.426 C2,5.562 5.14,2.426 9,2.426 Z" id="Fill-364" fill="#707C91"></path>
            </g>
        </g>
    </g>
</svg>