<?xml version="1.0" encoding="UTF-8"?>
<svg width="19px" height="19px" viewBox="0 0 19 19" version="1.1" xmlns="http://www.w3.org/2000/svg" xmlns:xlink="http://www.w3.org/1999/xlink">
    <!-- Generator: sketchtool 47.1 (45422) - http://www.bohemiancoding.com/sketch -->
    <title>6198DE6A-5C8A-4A73-B53C-258E2EB515F7</title>
    <desc>Created with sketchtool.</desc>
    <defs></defs>
    <g id="Page-1" stroke="none" stroke-width="1" fill="none" fill-rule="evenodd">
        <g id="Artboard" transform="translate(-18.000000, -36.000000)">
            <g id="Group-11" transform="translate(19.000000, 37.000000)">
                <path d="M16.4681,2.066 C16.4681,1.389 15.919,0.84 15.2425,0.84 L2.0626,0.84 C1.3862,0.84 0.837,1.389 0.837,2.066 L0.837,15.246 C0.837,15.922 1.3862,16.471 2.0626,16.471 L15.2425,16.471 C15.919,16.471 16.4681,15.922 16.4681,15.246 L16.4681,2.066 Z" id="Stroke-18" stroke="#FFFFFF" stroke-width="2" stroke-linecap="round" stroke-linejoin="round"></path>
                <path d="M14.4969,3.529 C14.4969,3.302 14.3125,3.118 14.0855,3.118 L3.371,3.118 C3.1439,3.118 2.9596,3.302 2.9596,3.529 L2.9596,6.192 C2.9596,6.419 3.1439,6.603 3.371,6.603 L14.0855,6.603 C14.3125,6.603 14.4969,6.419 14.4969,6.192 L14.4969,3.529 Z" id="Fill-19" fill="#FFFFFF"></path>
                <path d="M14.4969,13.062 C14.4969,12.952 14.408,12.864 14.2986,12.864 L3.1578,12.864 C3.0484,12.864 2.9596,12.952 2.9596,13.062 L2.9596,14.345 C2.9596,14.454 3.0484,14.543 3.1578,14.543 L14.2986,14.543 C14.408,14.543 14.4969,14.454 14.4969,14.345 L14.4969,13.062 Z" id="Fill-20" fill="#FFFFFF"></path>
            </g>
        </g>
    </g>
</svg>