<?xml version="1.0" encoding="UTF-8"?>
<svg width="15px" height="10px" viewBox="0 0 15 10" version="1.1" xmlns="http://www.w3.org/2000/svg" xmlns:xlink="http://www.w3.org/1999/xlink">
    <!-- Generator: sketchtool 47.1 (45422) - http://www.bohemiancoding.com/sketch -->
    <title>F8906287-F313-41D8-808A-286DA555579C</title>
    <desc>Created with sketchtool.</desc>
    <defs></defs>
    <g id="Page-1" stroke="none" stroke-width="1" fill="none" fill-rule="evenodd">
        <g id="Artboard" transform="translate(-19.000000, -229.000000)" fill="#FFFFFF">
            <g id="Group-37" transform="translate(19.000000, 229.000000)">
                <path d="M1,0 C1.55189391,0 2,0.448590711 2,1.00039698 C2,1.55220326 1.55189391,2 1,2 C0.448106091,2 0,1.55220326 0,1.00039698 C0,0.448590711 0.448106091,0 1,0 Z" id="Fill-4"></path>
                <path d="M1,4 C1.55189391,4 2,4.44859071 2,5.00039698 C2,5.55220326 1.55189391,6 1,6 C0.448106091,6 0,5.55220326 0,5.00039698 C0,4.44859071 0.448106091,4 1,4 Z" id="Fill-4-Copy"></path>
                <path d="M1,8 C1.55189391,8 2,8.44859071 2,9.00039698 C2,9.55220326 1.55189391,10 1,10 C0.448106091,10 0,9.55220326 0,9.00039698 C0,8.44859071 0.448106091,8 1,8 Z" id="Fill-4-Copy-2"></path>
                <path d="M14.4905,1.00055036 C14.4905,0.447991194 14.0832,0 13.5816,0 L3.909,0 C3.4073,0 3,0.447991194 3,1.00055036 C3,1.55200881 3.4073,2 3.909,2 L13.5816,2 C14.0832,2 14.4905,1.55200881 14.4905,1.00055036 Z" id="Fill-7"></path>
                <path d="M14.4905,5.00055036 C14.4905,4.44799119 14.0832,4 13.5816,4 L3.909,4 C3.4073,4 3,4.44799119 3,5.00055036 C3,5.55200881 3.4073,6 3.909,6 L13.5816,6 C14.0832,6 14.4905,5.55200881 14.4905,5.00055036 Z" id="Fill-7-Copy"></path>
                <path d="M14.4905,9.00055036 C14.4905,8.44799119 14.0832,8 13.5816,8 L3.909,8 C3.4073,8 3,8.44799119 3,9.00055036 C3,9.55200881 3.4073,10 3.909,10 L13.5816,10 C14.0832,10 14.4905,9.55200881 14.4905,9.00055036 Z" id="Fill-7-Copy-2"></path>
            </g>
        </g>
    </g>
</svg>