<?xml version="1.0" encoding="UTF-8"?>
<svg width="17px" height="17px" viewBox="0 0 17 17" version="1.1" xmlns="http://www.w3.org/2000/svg" xmlns:xlink="http://www.w3.org/1999/xlink">
    <!-- Generator: sketchtool 47.1 (45422) - http://www.bohemiancoding.com/sketch -->
    <title>8F07F984-8E05-486D-9601-DC6BC3E1F455</title>
    <desc>Created with sketchtool.</desc>
    <defs></defs>
    <g id="Page-1" stroke="none" stroke-width="1" fill="none" fill-rule="evenodd">
        <g id="Artboard" transform="translate(-17.000000, -309.000000)">
            <g id="Group-35" transform="translate(18.000000, 310.000000)">
                <path d="M15,1 C15,0.526946518 14.472958,0 14,0 L1,0 C0.527042018,0 0,0.526946518 0,1 L0,14 C0,14.4730535 0.527042018,15 1,15 L14,15 C14.472958,15 15,14.4730535 15,14 L15,1 Z" id="Stroke-10" stroke="#FFFFFF" stroke-width="2" stroke-linecap="round" stroke-linejoin="round"></path>
                <path d="M0,11 L6,8 L9,11 L12,9 L14,11 C14,11.2709929 14,12.8585248 14,14 C13.9999033,14.5344619 13.5221526,15 13,15 C10.3292194,15 3.67532512,15 1,15 C0.485679359,15 0.00821874288,14.5363429 0,14 C0.00425440808,12.7334408 0,10.846836 0,11 Z" id="Fill-11" fill="#FFFFFF"></path>
                <path d="M4.2854,2.688 C5.1428,2.688 5.8389,3.4 5.8389,4.277 C5.8389,5.154 5.1428,5.866 4.2854,5.866 C3.4281,5.866 2.732,5.154 2.732,4.277 C2.732,3.4 3.4281,2.688 4.2854,2.688 Z" id="Fill-12" fill="#FFFFFF"></path>
            </g>
        </g>
    </g>
</svg>