<?xml version="1.0" encoding="UTF-8"?>
<svg width="19px" height="23px" viewBox="0 0 19 23" version="1.1" xmlns="http://www.w3.org/2000/svg" xmlns:xlink="http://www.w3.org/1999/xlink">
    <!-- Generator: sketchtool 47.1 (45422) - http://www.bohemiancoding.com/sketch -->
    <title>BF1C05F2-CF2C-4B34-AFFA-7CC6569B51C5</title>
    <desc>Created with sketchtool.</desc>
    <defs></defs>
    <g id="Page-1" stroke="none" stroke-width="1" fill="none" fill-rule="evenodd">
        <g id="Artboard" transform="translate(-530.000000, -7.000000)">
            <g id="Group" transform="translate(531.000000, 8.000000)">
                <path d="M17,2.469 C17,1.106 15.9554444,0 14.6681667,0 L2.33183333,0 C1.0455,0 0,1.106 0,2.469 L0,18.531 C0,19.894 1.0455,21 2.33183333,21 L14.6681667,21 C15.9554444,21 17,19.894 17,18.531 L17,2.469 Z" id="Stroke-374" stroke="#FFFFFF" stroke-width="2" stroke-linejoin="round"></path>
                <polygon id="Fill-375" fill="#FFFFFF" points="0 20 17 20 17 16 0 16"></polygon>
                <path d="M8.5,17 C9.328,17 10,17.672 10,18.5 C10,19.328 9.328,20 8.5,20 C7.673,20 7,19.328 7,18.5 C7,17.672 7.673,17 8.5,17 Z" id="Fill-376" fill="#707C91"></path>
            </g>
        </g>
    </g>
</svg>