<?xml version="1.0" encoding="UTF-8"?>
<svg width="17px" height="16px" viewBox="0 0 17 16" version="1.1" xmlns="http://www.w3.org/2000/svg" xmlns:xlink="http://www.w3.org/1999/xlink">
    <!-- Generator: sketchtool 47.1 (45422) - http://www.bohemiancoding.com/sketch -->
    <title>9BB1D8E2-A988-4B19-897E-DA76B51A509F</title>
    <desc>Created with sketchtool.</desc>
    <defs></defs>
    <g id="Page-1" stroke="none" stroke-width="1" fill="none" fill-rule="evenodd">
        <g id="Artboard" transform="translate(-321.000000, -12.000000)" fill="#465669">
            <g id="Group-6" transform="translate(321.000000, 12.000000)">
                <path d="M3.928,15.169 C0.38,13.121 -0.835,8.584 1.213,5.036 C3.261,1.488 7.798,0.273 11.346,2.321 L9.492,5.533 C7.718,4.509 5.449,5.117 4.425,6.891 C3.401,8.665 4.009,10.933 5.783,11.957 L3.928,15.169 Z" id="Fill-438"></path>
                <path d="M15.651,7.685 C15.947,7.649 16.208,7.476 16.357,7.218 C16.506,6.96 16.525,6.647 16.408,6.372 C15.776,4.887 14.674,2.301 13.94,0.577 C13.799,0.247 13.484,0.024 13.125,0.003 C12.767,-0.019 12.427,0.164 12.247,0.475 C11.197,2.294 9.513,5.21 8.463,7.03 C8.283,7.341 8.295,7.727 8.493,8.026 C8.691,8.326 9.041,8.488 9.398,8.445 C11.258,8.219 14.048,7.879 15.651,7.685 Z" id="Fill-439"></path>
            </g>
        </g>
    </g>
</svg>