<?xml version="1.0" encoding="UTF-8"?>
<svg width="17px" height="16px" viewBox="0 0 17 16" version="1.1" xmlns="http://www.w3.org/2000/svg" xmlns:xlink="http://www.w3.org/1999/xlink">
    <!-- Generator: sketchtool 47.1 (45422) - http://www.bohemiancoding.com/sketch -->
    <title>79CB8A25-4FEF-4093-8F7E-0D0D18086E10</title>
    <desc>Created with sketchtool.</desc>
    <defs></defs>
    <g id="Page-1" stroke="none" stroke-width="1" fill="none" fill-rule="evenodd">
        <g id="Artboard" transform="translate(-18.000000, -282.000000)">
            <g id="Group-34" transform="translate(19.000000, 283.000000)">
                <path d="M15,0 C15,0.14 14.8602,0 15,0 L0,0 C0.1398,0 0,0.14 0,0 L0,9 C0,8.86 0.1398,9 0,9 L15,9 C14.8602,9 15,8.86 15,9 L15,0 Z" id="Stroke-73" stroke="#FFFFFF" stroke-width="2" stroke-linejoin="round"></path>
                <path d="M16,13 C16,11.896 15.0611238,11 14,11 L7,11 C5.93887619,11 5,11.896 5,13 C5,14.104 5.93887619,15 7,15 L14,15 C15.0611238,15 16,14.104 16,13 Z" id="Fill-74" fill="#FFFFFF"></path>
            </g>
        </g>
    </g>
</svg>