<?xml version="1.0" encoding="UTF-8"?>
<svg width="56px" height="84px" viewBox="0 0 56 84" version="1.1" xmlns="http://www.w3.org/2000/svg" xmlns:xlink="http://www.w3.org/1999/xlink">
    <!-- Generator: Sketch 47.1 (45422) - http://www.bohemiancoding.com/sketch -->
    <title>CloseArtboard</title>
    <desc>Created with Sketch.</desc>
    <defs>
        <circle id="path-1" cx="6" cy="6" r="6"></circle>
        <circle id="path-2" cx="34" cy="6" r="6"></circle>
        <circle id="path-3" cx="20" cy="6" r="6"></circle>
        <circle id="path-4" cx="48" cy="6" r="6"></circle>
        <circle id="path-5" cx="6" cy="6" r="6"></circle>
        <circle id="path-6" cx="34" cy="6" r="6"></circle>
        <circle id="path-7" cx="20" cy="6" r="6"></circle>
        <circle id="path-8" cx="6" cy="6" r="6"></circle>
        <circle id="path-9" cx="20" cy="6" r="6"></circle>
        <circle id="path-10" cx="34" cy="6" r="6"></circle>
        <circle id="path-11" cx="6" cy="6" r="6"></circle>
        <circle id="path-12" cx="20" cy="6" r="6"></circle>
        <circle id="path-13" cx="34" cy="6" r="6"></circle>
    </defs>
    <g id="Page-1" stroke="none" stroke-width="1" fill="none" fill-rule="evenodd">
        <g id="CloseArtboard">
            <g id="Group" transform="translate(1.000000, 1.000000)">
                <g id="Background">
                    <use fill="#FF5F58" fill-rule="evenodd" xlink:href="#path-1"></use>
                    <circle stroke="#E1483F" stroke-width="0.5" cx="6" cy="6" r="5.75"></circle>
                </g>
                <g id="Background">
                    <use fill="#FF5F58" fill-rule="evenodd" xlink:href="#path-2"></use>
                    <circle stroke="#E1483F" stroke-width="0.5" cx="34" cy="6" r="5.75"></circle>
                </g>
                <circle id="Background" fill-opacity="0.2" fill="#000000" cx="34" cy="6" r="6"></circle>
                <path d="M34,6 L31.5,8.5 L34,6 L31.5,3.5 L34,6 Z M34,6 L36.5,8.5 L34,6 L36.5,3.5 L34,6 Z" id="Hover" stroke="#000000" stroke-width="2" opacity="0.5" stroke-linecap="square"></path>
                <g id="Background">
                    <use fill="#FF5F58" fill-rule="evenodd" xlink:href="#path-3"></use>
                    <circle stroke="#E1483F" stroke-width="0.5" cx="20" cy="6" r="5.75"></circle>
                </g>
                <g id="Background">
                    <use fill="#D7D7D7" fill-rule="evenodd" xlink:href="#path-4"></use>
                    <circle stroke="#CACACA" stroke-width="0.5" cx="48" cy="6" r="5.75"></circle>
                </g>
                <path d="M20,6 L17.5,8.5 L20,6 L17.5,3.5 L20,6 Z M20,6 L22.5,8.5 L20,6 L22.5,3.5 L20,6 Z" id="Hover" stroke="#000000" stroke-width="2" opacity="0.5" stroke-linecap="square"></path>
            </g>
            <g id="Group-2" transform="translate(1.000000, 15.000000)">
                <g id="Background">
                    <use fill="#FFBE2F" fill-rule="evenodd" xlink:href="#path-5"></use>
                    <circle stroke="#E0A028" stroke-width="0.5" cx="6" cy="6" r="5.75"></circle>
                </g>
                <g id="Background">
                    <use fill="#FFBE2F" fill-rule="evenodd" xlink:href="#path-6"></use>
                    <circle stroke="#E0A028" stroke-width="0.5" cx="34" cy="6" r="5.75"></circle>
                </g>
                <circle id="Background" fill-opacity="0.2" fill="#000000" cx="34" cy="6" r="6"></circle>
                <rect id="Hover" fill-opacity="0.5" fill="#000000" x="30" y="5" width="8" height="2"></rect>
                <g id="Background">
                    <use fill="#FFBE2F" fill-rule="evenodd" xlink:href="#path-7"></use>
                    <circle stroke="#E0A028" stroke-width="0.5" cx="20" cy="6" r="5.75"></circle>
                </g>
                <rect id="Hover" fill-opacity="0.5" fill="#000000" x="16" y="5" width="8" height="2"></rect>
            </g>
            <g id="Group-3" transform="translate(1.000000, 29.000000)">
                <g id="Background">
                    <use fill="#2AC940" fill-rule="evenodd" xlink:href="#path-8"></use>
                    <circle stroke="#2BAC2D" stroke-width="0.5" cx="6" cy="6" r="5.75"></circle>
                </g>
                <g id="Background">
                    <use fill="#2AC940" fill-rule="evenodd" xlink:href="#path-9"></use>
                    <circle stroke="#2BAC2D" stroke-width="0.5" cx="20" cy="6" r="5.75"></circle>
                </g>
                <path d="M17,5 L21,9 L17,9 L17,5 Z M23,7 L19,3 L23,3 L23,7 Z" id="Hover" fill-opacity="0.5" fill="#000000" transform="translate(20.000000, 6.000000) rotate(180.000000) translate(-20.000000, -6.000000) "></path>
                <g id="Background">
                    <use fill="#2AC940" fill-rule="evenodd" xlink:href="#path-10"></use>
                    <circle stroke="#2BAC2D" stroke-width="0.5" cx="34" cy="6" r="5.75"></circle>
                </g>
                <path d="M31,5 L35,9 L31,9 L31,5 Z M37,7 L33,3 L37,3 L37,7 Z" id="Hover" fill-opacity="0.5" fill="#000000" transform="translate(34.000000, 6.000000) rotate(180.000000) translate(-34.000000, -6.000000) "></path>
                <circle id="Background" fill-opacity="0.2" fill="#000000" cx="34" cy="6" r="6"></circle>
            </g>
            <g id="Group-3" transform="translate(1.000000, 43.000000)">
                <g id="Background">
                    <use fill="#2AC940" fill-rule="evenodd" xlink:href="#path-11"></use>
                    <circle stroke="#2BAC2D" stroke-width="0.5" cx="6" cy="6" r="5.75"></circle>
                </g>
                <g id="Background">
                    <use fill="#2AC940" fill-rule="evenodd" xlink:href="#path-12"></use>
                    <circle stroke="#2BAC2D" stroke-width="0.5" cx="20" cy="6" r="5.75"></circle>
                </g>
                <g id="Background">
                    <use fill="#2AC940" fill-rule="evenodd" xlink:href="#path-13"></use>
                    <circle stroke="#2BAC2D" stroke-width="0.5" cx="34" cy="6" r="5.75"></circle>
                </g>
                <circle id="Background" fill-opacity="0.2" fill="#000000" cx="34" cy="6" r="6"></circle>
                <path d="M19,5 L16,5 L16,7 L19,7 L19,10 L21,10 L21,7 L24,7 L24,5 L21,5 L21,2 L19,2 L19,5 Z" id="Hover" fill-opacity="0.5" fill="#000000"></path>
                <path d="M33,5 L30,5 L30,7 L33,7 L33,10 L35,10 L35,7 L38,7 L38,5 L35,5 L35,2 L33,2 L33,5 Z" id="Hover" fill-opacity="0.5" fill="#000000"></path>
            </g>
            <g id="Windows" transform="translate(2.000000, 58.000000)" stroke="#FFFFFF">
                <rect id="Rectangle-3" x="14.5" y="0.5" width="9" height="9"></rect>
                <rect id="Rectangle-4" x="42.5" y="2.5" width="7" height="7"></rect>
                <path d="M44.5,0.5 L44.5,2.5 L49.5,2.5 L49.5,7.5 L51.5,7.5 L51.5,0.5 L44.5,0.5 Z" id="Path"></path>
                <path d="M28.5,5.5 L37.5,5.5" id="Line" stroke-linecap="square"></path>
                <path d="M5,5 L0.625,0.714285714 L5,5 L0.625,9.28571429 L5,5 Z M5,5 L9.375,9.28571429 L5,5 L9.375,0.714285714 L5,5 Z" id="Line-2" stroke-linecap="square"></path>
            </g>
            <g id="Linux" transform="translate(3.000000, 71.000000)" stroke="#FFFFFF">
                <path d="M4,6 L7.33333333,9.33333333 L4,6 L0.666666667,9.33333333 L4,6 Z M4,6 L0.666666667,2.66666667 L4,6 L7.33333333,2.66666667 L4,6 Z" id="Close" stroke-width="2" stroke-linecap="square"></path>
                <g id="Maximize" transform="translate(12.000000, 0.000000)">
                    <path d="M1,11 L5.02769257,6.97230743" id="Path" stroke-width="2" fill="#C1C1C1"></path>
                    <path d="M6.5,5.5 L11.0276926,0.972307431" id="Path" stroke-width="2" fill="#C1C1C1"></path>
                    <path d="M0.5,7 L5,11.5 L0.5,11.5 L0.5,7 Z M11.5,5 L7,0.5 L11.5,0.5 L11.5,5 Z" id="Triangle" fill="#FFFFFF"></path>
                </g>
                <g id="Minimize" transform="translate(28.000000, 1.000000)" stroke-linecap="square">
                    <path d="M0.5,9 L7.5,9" stroke-width="1.5" fill="#C1C1C1"></path>
                    <polygon id="Path" stroke-width="1.5" fill="#FFFFFF" transform="translate(4.000000, 6.500000) scale(1, -1) translate(-4.000000, -6.500000) " points="4 5 6.5 8 1.5 8"></polygon>
                    <path d="M4,0 L4,5" id="Line-3" stroke-width="2"></path>
                </g>
                <g id="Restore" transform="translate(41.000000, 0.000000)">
                    <path d="M1.77635684e-15,11 L4.02769257,6.97230743" id="Path" stroke-width="2" fill="#C1C1C1"></path>
                    <path d="M6,5 L10.0276926,0.972307431" id="Path" stroke-width="2" fill="#C1C1C1"></path>
                    <path d="M5.5,1 L10,5.5 L5.5,5.5 L5.5,1 Z M4.5,11 L8.8817842e-16,6.5 L4.5,6.5 L4.5,11 Z" id="Triangle" fill="#FFFFFF"></path>
                </g>
            </g>
        </g>
    </g>
</svg>