<svg xmlns="http://www.w3.org/2000/svg" viewBox="950 80 1350 630">
    <defs>
        <style>.cls-1{fill:#fff;}.cls-2{fill:none;stroke:#fff;stroke-linejoin:round;stroke-width:18.42px;}</style>
    </defs>
    <title>logo</title>
    <g id="Layer_1-2">
        <path class="cls-1" d="M1219.36 102.7h-88.71L957.26 573.14h86l39-113.58h185.49l39 113.58h86L1219.36 102.7zM1175 189.4l69.22 201.6h-138.44L1175 189.4zM1516.4 225h-76.61v477.85h76.61V552.31c22.18 18.15 51.75 28.9 87.37 28.9 90.73 0 158.6-71.24 158.6-182.13S1694.5 217 1603.77 217c-35.62 0-65.19 10.75-87.37 28.9V225zm0 86.7c18.14-19.49 45.7-31.59 75.27-31.59 53.76 0 92.74 39 92.74 119s-39 119-92.74 119c-29.57 0-57.12-12.1-75.27-31.59V311.71zM1836.3 573.14h76.61V82.54h-76.61v490.6zM2119.91 581.2c40.32 0 71.91-9.41 95.43-28.9v20.83H2292V348c0-97.45-45.7-131-147.85-131-47.72 0-98.12 12.1-128.36 30.24l7.39 64.52c34.27-19.49 75.27-31.59 117.61-31.59 53.76 0 74.6 12.77 74.6 53.09V350h-72.58c-100.14 0-155.92 45.7-155.92 118.28 0 75.27 59.81 112.9 133.07 112.9zm10.75-63.2c-40.32 0-65.86-15.46-65.86-51.08 0-34.27 22.18-55.11 80.65-55.11h69.89v74.6C2196.52 508 2166.28 518 2130.66 518z"/>
    </g>
</svg>